<?xml version="1.0" encoding="UTF-8"?>
<svg width="30px" height="30px" viewBox="0 0 30 30" version="1.1" xmlns="http://www.w3.org/2000/svg" xmlns:xlink="http://www.w3.org/1999/xlink">
    <g id="H5">
        <g id="Deland/Trading-Swap-pop" transform="translate(-308.000000, -725.000000)">
            <g id="tab" transform="translate(0.000000, 712.000000)">
                <g id="icon/trading" transform="translate(308.000000, 13.000000)">
                    <path d="M20.8574929,19.4855042 L24.7661904,26 L5.23380962,26 L9.14250707,19.4855042 L10.8574929,20.5144958 L8.765,24 L13.9998096,23.999 L14,20 L16,20 L15.9998096,23.999 L21.234,24 L19.1425071,20.5144958 L20.8574929,19.4855042 Z M15,5 C18.8659932,5 22,8.13400675 22,12 C22,15.8659932 18.8659932,19 15,19 C11.1340068,19 8,15.8659932 8,12 C8,8.13400675 11.1340068,5 15,5 Z M15,7 C12.2385763,7 10,9.23857625 10,12 C10,14.7614237 12.2385763,17 15,17 C17.7614237,17 20,14.7614237 20,12 C20,9.23857625 17.7614237,7 15,7 Z" id="xz" fill-rule="nonzero"></path>
                </g>
            </g>
        </g>
    </g>
</svg>